<svg width="18" height="20" viewBox="0 0 18 20" fill="none" xmlns="http://www.w3.org/2000/svg">
<path fill-rule="evenodd" clip-rule="evenodd" d="M16 10V6.62081C14.3446 7.50509 11.8145 8 9 8C6.18547 8 3.65544 7.50509 2 6.62081V10C2 10.837 5.10128 12 9 12C12.8987 12 16 10.837 16 10ZM16 12.6208C14.3446 13.5051 11.8145 14 9 14C6.18547 14 3.65544 13.5051 2 12.6208V16C2 16.837 5.10128 18 9 18C12.8987 18 16 16.837 16 16V12.6208ZM0 4C0 1.52331 4.06216 0 9 0C13.9378 0 18 1.52331 18 4V16C18 18.4767 13.9378 20 9 20C4.06216 20 0 18.4767 0 16V4ZM9 6C12.8987 6 16 4.83702 16 4C16 3.16298 12.8987 2 9 2C5.10128 2 2 3.16298 2 4C2 4.83702 5.10128 6 9 6Z" fill="#202020"/>
</svg>
